<?xml version="1.0" standalone="no"?>
<!DOCTYPE svg PUBLIC "-//W3C//DTD SVG 20010904//EN"
 "http://www.w3.org/TR/2001/REC-SVG-20010904/DTD/svg10.dtd">
<svg version="1.0" xmlns="http://www.w3.org/2000/svg"
 width="1200.000000pt" height="1200.000000pt" viewBox="0 0 1200.000000 1200.000000"
 preserveAspectRatio="xMidYMid meet">

<g transform="translate(0.000000,1200.000000) scale(0.100000,-0.100000)"
fill="#000000" stroke="none">
<path d="M5552 10454 c-1013 -100 -1939 -497 -2651 -1137 -846 -761 -1360
-1767 -1487 -2908 -24 -219 -25 -738 -1 -941 69 -584 205 -1050 443 -1528 195
-390 436 -731 738 -1047 570 -595 1337 -1042 2148 -1253 393 -102 705 -145
1128 -156 652 -18 1247 88 1880 333 168 66 555 259 705 354 906 570 1542 1368
1878 2355 139 409 205 754 229 1203 29 536 -52 1127 -225 1651 -167 506 -430
992 -763 1410 -139 175 -507 543 -684 684 -147 117 -417 301 -574 391 -574
328 -1205 526 -1881 590 -198 19 -693 18 -883 -1z m1698 -516 c0 -16 -98 -114
-135 -134 -66 -35 -74 23 -12 92 49 56 83 74 118 62 16 -5 29 -14 29 -20z
m-1941 -19 c52 -49 -12 -81 -68 -33 -25 21 -29 29 -20 40 17 21 62 17 88 -7z
m-1323 -54 c26 -24 26 -26 9 -45 -24 -27 -36 -25 -71 11 -28 30 -28 31 -10 45
28 20 41 18 72 -11z m-110 -39 c12 -50 1 -77 -45 -104 l-43 -25 16 32 c11 21
15 43 11 64 -6 28 -3 35 17 44 33 17 37 16 44 -11z m4428 -105 c37 -36 87 -88
110 -116 37 -44 38 -47 11 -28 -47 34 -243 237 -215 222 14 -6 56 -42 94 -78z
m-4614 -73 c0 -4 -13 -14 -29 -22 -27 -14 -29 -14 -61 19 -19 19 -32 36 -29
38 46 38 52 38 86 5 18 -18 33 -35 33 -40z m1028 16 c33 -23 44 -48 32 -78
-14 -37 -35 -32 -70 15 -23 33 -27 45 -19 60 12 23 27 24 57 3z m1632 -49
c338 -10 568 -81 815 -249 162 -111 380 -338 461 -483 42 -75 100 -214 109
-266 l7 -37 -841 0 -841 0 0 509 c0 280 3 516 6 525 5 12 18 14 67 11 34 -3
132 -7 217 -10z m-2593 -202 c-6 -189 10 -3929 17 -4013 5 -57 -5 -190 -13
-190 -11 0 -106 130 -132 180 l-24 45 -6 1125 c-4 619 -7 1533 -8 2031 l-1
905 68 46 c58 39 83 54 101 57 2 1 1 -83 -2 -186z m2061 -325 l2 -508 -667 0
c-368 0 -678 3 -690 6 -19 5 -22 11 -17 33 72 329 319 605 719 800 181 89 504
183 610 178 l40 -2 3 -507z m-1288 372 c47 -47 33 -108 -18 -80 -25 15 -55 76
-45 93 8 14 43 7 63 -13z m-1380 -136 c22 -9 40 -20 40 -24 0 -5 -19 -25 -43
-44 l-43 -35 -47 23 -47 24 40 36 c46 41 46 41 100 20z m5780 -24 c32 -26 33
-29 15 -36 -11 -4 -35 -13 -54 -20 -30 -13 -36 -12 -62 7 -16 11 -29 22 -29
24 0 5 83 55 90 55 3 0 21 -14 40 -30z m-5422 -860 c0 -388 3 -1162 7 -1720 4
-590 3 -1034 -3 -1060 l-9 -45 -21 68 c-66 209 -139 700 -153 1032 -13 325 -9
1152 6 1228 9 44 10 204 4 614 -4 305 -5 563 -2 572 18 58 33 78 92 123 l66
50 6 -79 c4 -43 7 -395 7 -783z m4529 744 c8 -22 -22 -44 -59 -44 -23 0 -28 4
-28 24 0 27 11 34 53 35 17 1 30 -5 34 -15z m-5043 -42 c3 -5 -11 -24 -31 -43
-36 -34 -35 -26 2 24 23 30 22 30 29 19z m6031 -39 c8 -28 -6 -30 -29 -4 -20
22 -11 61 9 39 7 -7 16 -23 20 -35z m-5767 -56 c6 -5 12 -23 12 -40 0 -39 -69
-287 -84 -304 -6 -7 -29 -21 -50 -31 l-40 -20 -61 -208 c-34 -115 -70 -242
-80 -281 -17 -65 -22 -73 -43 -73 -18 0 -22 4 -18 18 46 146 148 508 186 661
56 216 64 240 92 276 15 20 25 24 46 19 15 -4 33 -11 40 -17z m6010 -69 l82
-88 -21 -42 c-12 -24 -23 -45 -25 -47 -6 -6 -96 83 -135 131 l-30 37 17 51 c9
28 20 50 24 48 3 -2 43 -42 88 -90z m-6488 47 c0 -9 7 -29 15 -46 16 -30 16
-30 -41 -94 -31 -36 -60 -65 -64 -65 -5 0 -16 20 -26 45 -19 51 -22 45 60 133
43 45 56 51 56 27z m215 -25 c3 -5 -21 -76 -54 -157 -33 -82 -116 -287 -185
-458 l-125 -310 -37 -3 c-36 -3 -36 -3 -29 25 3 15 31 93 60 173 172 467 217
590 232 630 21 56 72 110 106 110 14 0 29 -4 32 -10z m35 -212 c-17 -62 -36
-124 -41 -138 -5 -14 -43 -142 -84 -285 -46 -159 -82 -265 -92 -272 -16 -12
-113 -19 -113 -8 0 11 299 755 320 795 15 29 25 39 32 32 7 -7 0 -46 -22 -124z
m-266 -4 c-14 -43 -58 -162 -96 -264 -39 -102 -90 -243 -114 -315 -35 -105
-47 -131 -63 -133 -20 -3 -20 -2 -5 50 69 234 185 591 203 626 21 42 90 126
97 119 2 -2 -8 -39 -22 -83z m4783 -290 c42 -8 100 -24 130 -35 44 -17 53 -25
53 -45 l0 -24 -283 0 c-156 0 -286 2 -289 5 -5 5 6 71 17 103 7 19 275 16 372
-4z m1525 -356 c2 -200 2 -373 0 -385 -4 -23 -6 -23 -162 -23 l-159 0 -5 53
c-9 92 -36 530 -36 583 l0 51 88 6 c67 5 106 14 172 42 47 19 88 35 91 35 4 0
9 -163 11 -362z m-429 250 c4 -46 13 -193 22 -328 8 -135 17 -262 19 -282 l4
-38 -38 0 c-36 0 -39 2 -44 33 -3 17 -8 182 -12 365 l-6 332 24 0 c24 0 25 -3
31 -82z m1235 -245 c12 -18 22 -35 22 -37 0 -10 -296 292 -314 319 -23 37 260
-238 292 -282z m-7545 269 c24 -21 22 -30 -26 -93 -62 -83 -101 -113 -127 -99
-31 16 -25 31 35 90 49 49 54 56 39 67 -16 11 -16 14 0 38 19 28 44 27 79 -3z
m3422 -91 l70 -6 3 -420 c2 -231 0 -543 -4 -692 l-6 -273 -62 0 c-96 0 -106
-12 -105 -118 2 -137 1 -136 89 -142 l75 -5 3 -607 2 -608 -200 0 -200 0 0 30
c0 16 -12 64 -26 107 -32 98 -29 179 8 203 81 53 147 152 182 269 9 30 16 56
16 58 0 2 -25 3 -55 3 l-55 0 0 59 c0 91 -44 172 -112 207 -88 45 -216 -68
-236 -208 -6 -47 -10 -53 -32 -56 -14 -1 -35 -5 -46 -7 l-22 -5 23 -76 c36
-115 62 -160 121 -211 48 -41 54 -51 54 -85 0 -21 -5 -38 -10 -38 -6 0 -37 11
-70 25 -140 59 -232 66 -540 41 -91 -8 -166 -13 -167 -12 -1 1 -6 2553 -4
2569 1 8 1205 7 1306 -2z m963 2 l72 -6 0 -693 0 -694 -358 0 -359 0 -6 407
c-9 534 -9 978 0 987 9 8 543 8 651 -1z m1026 -55 c3 -35 8 -140 11 -234 4
-103 12 -190 21 -219 20 -69 19 -83 -6 -60 -20 18 -20 17 -20 -66 0 -53 5 -90
12 -97 9 -9 9 -15 0 -24 -8 -8 -12 -57 -12 -155 0 -131 -2 -144 -21 -162 -11
-10 -36 -22 -56 -26 -58 -11 -80 -25 -98 -65 -22 -49 -11 -71 52 -98 41 -17
51 -27 65 -65 16 -45 16 -45 -5 -51 -48 -11 -270 -16 -417 -9 l-155 8 -1 235
-1 235 -32 75 c-46 107 -51 127 -51 202 0 101 71 537 100 614 l10 24 299 0
299 0 6 -62z m-5353 -16 c-6 -22 -20 -51 -31 -64 -20 -23 -20 -23 0 35 10 31
22 62 26 68 12 21 15 0 5 -39z m-180 -62 c14 0 11 -16 -10 -41 l-18 -22 -37
22 c-20 12 -36 25 -36 27 0 3 7 18 15 35 l16 30 30 -26 c17 -14 35 -25 40 -25z
m-93 -58 c2 -6 -17 -33 -42 -59 -53 -56 -58 -49 -15 25 28 50 48 61 57 34z
m5781 -97 c6 -49 11 -101 11 -114 0 -24 0 -24 -21 -5 -30 26 -49 75 -49 124 0
45 27 107 40 94 5 -5 13 -49 19 -99z m-5749 33 c0 -15 -78 -164 -92 -175 -19
-16 -95 -26 -102 -14 -12 19 16 61 41 61 36 0 83 51 83 91 0 20 9 42 22 56 21
23 23 23 35 7 7 -10 13 -22 13 -26z m6090 -253 c18 -21 -2 -65 -30 -65 -21 0
-37 38 -26 65 7 19 40 19 56 0z m-362 -122 l-22 -23 -23 22 c-17 16 -23 32
-23 67 l0 45 45 -44 45 -44 -22 -23z m-5988 23 c0 -2 -7 -9 -15 -16 -13 -11
-14 -10 -9 4 5 14 24 23 24 12z m244 -98 c3 -13 6 -44 6 -70 0 -42 -3 -48 -24
-54 -13 -3 -35 -4 -47 -2 -27 3 -35 37 -24 94 5 27 12 36 38 43 45 13 44 13
51 -11z m7330 -79 c2 -2 6 -28 9 -56 l6 -53 -461 0 -460 0 6 38 c4 21 18 47
34 61 l26 24 418 -5 c230 -3 420 -7 422 -9z m-7319 -506 c4 -230 8 -431 9
-448 1 -28 -2 -30 -36 -33 -36 -3 -38 -1 -38 25 0 15 -7 195 -15 398 -8 204
-15 394 -15 423 l0 52 44 0 43 0 8 -417z m-165 388 c0 -11 9 -207 20 -437 11
-229 19 -418 17 -420 -1 -2 -8 0 -14 4 -22 14 -93 498 -108 738 l-7 111 38 11
c55 14 54 14 54 -7z m771 -3 l37 -16 6 -269 c3 -147 8 -334 10 -414 l5 -147
-125 -7 c-69 -4 -127 -5 -130 -2 -7 6 15 858 22 869 9 15 133 4 175 -14z
m1316 -23 c34 -24 66 -103 67 -166 1 -80 -30 -108 -85 -78 -29 15 -79 126 -79
174 0 73 46 106 97 70z m5433 -61 c0 -19 -5 -45 -11 -56 -11 -20 -16 -21 -198
-14 -102 3 -316 6 -476 7 -159 1 -321 4 -358 7 l-68 5 3 31 c5 56 3 56 581 56
l527 0 0 -36z m-2463 -126 c-2 -13 -4 -5 -4 17 -1 22 1 32 4 23 2 -10 2 -28 0
-40z m2156 2 l257 0 0 -30 0 -30 -477 -1 c-263 -1 -489 0 -503 1 -14 1 -45 13
-70 28 l-45 26 30 8 c17 4 147 5 290 3 143 -3 376 -5 518 -5z m-2183 -95 c26
-13 30 -21 30 -54 l0 -39 -29 29 c-34 33 -83 39 -119 13 -21 -15 -22 -14 -22
20 0 24 5 36 18 39 38 10 95 6 122 -8z m2395 -141 l70 -5 2 -65 2 -64 -57 0
c-31 0 -245 5 -475 10 -485 11 -460 6 -481 102 -5 20 -2 28 11 32 22 6 831 -3
928 -10z m-2478 -146 c57 -56 68 -88 30 -88 -15 0 -47 24 -92 70 l-69 70 39 0
c34 0 46 -7 92 -52z m103 17 c-37 -39 -51 -43 -70 -20 -21 25 14 55 64 55 l40
0 -34 -35z m2023 -61 l439 -7 9 -24 c5 -13 9 -31 9 -40 0 -17 42 -17 -775 3
l-250 7 4 40 3 40 62 -6 c33 -4 258 -10 499 -13z m-4908 -139 c14 -13 25 -36
25 -50 0 -27 -40 -75 -61 -75 -27 0 -49 33 -49 72 0 77 38 101 85 53z m2645
-590 l0 -605 -355 0 -355 0 0 393 c0 217 -3 489 -7 605 l-6 212 361 0 362 0 0
-605z m930 395 c0 -115 -3 -210 -7 -210 -5 0 -20 23 -35 50 -16 28 -32 50 -38
50 -5 0 -22 -19 -37 -42 -25 -38 -28 -50 -27 -127 1 -88 25 -175 98 -363 l26
-68 -26 0 c-33 0 -72 21 -108 59 -17 17 -36 31 -44 31 -24 0 -4 -50 39 -97 21
-23 39 -46 39 -51 0 -5 -66 -17 -147 -26 -82 -10 -186 -24 -232 -32 -46 -8
-85 -13 -86 -12 -2 2 -5 205 -7 453 l-3 450 54 7 c75 11 115 33 164 89 l42 48
168 1 167 0 0 -210z m1575 181 l210 -6 3 -33 3 -34 -538 7 c-575 8 -573 8
-573 57 0 17 16 18 343 17 188 -1 437 -5 552 -8z m246 -150 c4 -3 3 -35 -2
-71 -5 -36 -6 -89 -2 -119 l6 -54 -154 6 c-85 4 -327 10 -538 14 l-384 6 -19
45 c-23 51 -22 167 1 181 15 9 1083 2 1092 -8z m-4172 -155 c48 -37 83 -206
45 -220 -25 -10 -160 -7 -188 4 -52 19 -42 106 20 179 51 59 82 69 123 37z
m2289 -135 c-2 -14 -9 -26 -15 -29 -9 -2 -13 10 -13 45 1 45 2 47 16 28 8 -11
14 -31 12 -44z m-4483 -25 l70 -11 0 -90 0 -89 -65 2 c-100 4 -361 22 -398 28
-36 6 -36 1 -5 116 14 52 18 57 47 61 48 8 273 -3 351 -17z m6105 9 l185 -2 3
-24 c2 -13 10 -48 17 -78 l14 -53 -117 6 c-64 4 -148 9 -187 11 -38 3 -171 10
-295 16 -124 5 -288 14 -365 19 -77 5 -145 10 -151 10 -22 0 -44 47 -37 81 l6
32 371 -8 c204 -4 454 -9 556 -10z m-7556 -25 l26 -10 0 -540 c0 -353 -3 -540
-10 -540 -5 0 -10 4 -10 9 0 5 -9 61 -20 125 -38 223 -59 455 -63 714 l-4 252
28 0 c15 0 39 -4 53 -10z m6100 -160 c-6 -6 -36 -15 -67 -20 -32 -5 -61 -11
-66 -14 -5 -3 -11 4 -15 17 -9 34 -8 37 17 37 12 0 38 9 57 19 l35 19 25 -24
c17 -16 21 -27 14 -34z m-5893 20 c10 -6 26 -24 34 -40 15 -29 15 -30 -7 -30
-35 1 -108 37 -108 54 0 23 49 32 81 16z m6684 -10 c94 -5 321 -14 505 -21
184 -6 345 -13 358 -15 20 -4 22 -10 22 -70 0 -35 7 -81 15 -101 l15 -36 -122
6 c-68 4 -271 11 -453 17 -181 6 -380 13 -441 16 l-112 6 -18 40 c-10 22 -38
57 -62 78 -39 35 -43 42 -37 70 l7 32 77 -7 c42 -3 153 -10 246 -15z m-5974
-90 c10 -6 19 -19 19 -30 0 -18 -5 -19 -57 -14 -44 4 -63 2 -78 -10 -19 -14
-17 -15 33 -16 78 0 92 -11 92 -70 l0 -50 -75 0 c-90 0 -101 19 -27 46 60 22
69 30 44 38 -11 4 -37 0 -57 -9 -21 -8 -39 -15 -41 -15 -9 0 -3 103 6 121 9
15 22 19 66 19 30 0 64 -5 75 -10z m-726 -15 c29 -11 60 -51 50 -63 -1 -1 -19
5 -41 14 -23 10 -53 14 -76 11 -34 -5 -38 -3 -38 17 0 13 3 26 7 29 11 12 62
8 98 -8z m375 -19 c0 -19 -5 -21 -44 -18 -24 2 -53 -1 -65 -8 -17 -9 -22 -8
-27 5 -13 34 37 56 109 46 20 -2 27 -9 27 -25z m160 15 c0 -13 -11 -23 -35
-31 -36 -12 -39 -30 -5 -30 15 0 20 -10 26 -45 8 -55 -6 -75 -51 -75 -39 0
-43 4 -37 36 3 16 9 23 18 20 8 -3 21 -9 29 -12 10 -4 15 0 15 10 0 10 -13 21
-29 27 -29 10 -41 32 -41 80 0 35 6 39 62 39 41 0 48 -3 48 -19z m-344 -15
c12 -47 -8 -54 -81 -26 -22 8 -24 13 -15 30 8 15 21 20 50 20 34 0 41 -4 46
-24z m-174 -66 c17 -17 29 -33 26 -35 -4 -4 -71 14 -121 34 -38 15 -25 31 24
31 32 0 47 -7 71 -30z m343 0 c-4 -20 -3 -30 5 -30 7 0 10 -13 8 -32 -3 -33
-3 -33 -65 -36 -62 -3 -63 -2 -63 23 0 22 4 25 33 25 18 0 42 7 53 15 17 13
14 14 -40 15 -58 0 -59 0 -42 19 19 20 39 27 89 30 27 1 28 -1 22 -29z m-205
-10 c16 -10 15 -12 -14 -27 -17 -9 -16 -12 13 -29 17 -10 31 -22 31 -27 0 -9
-77 -3 -87 6 -8 9 20 87 31 87 6 0 18 -4 26 -10z m-167 -37 c36 -13 47 -22 47
-39 0 -16 -5 -21 -22 -18 -13 2 -44 6 -70 9 -45 6 -48 8 -48 36 0 35 20 38 93
12z m7277 -63 c168 -5 306 -9 306 -9 1 -1 -1 -15 -5 -32 l-6 -30 -245 1 c-135
0 -283 3 -330 6 -487 28 -470 26 -470 61 l0 26 223 -7 c122 -4 359 -11 527
-16z m-4107 -24 c110 -33 177 -65 156 -76 -8 -4 -84 -13 -169 -19 -85 -6 -203
-16 -262 -22 -106 -9 -108 -9 -145 15 -44 29 -126 49 -266 67 -53 6 -100 15
-102 20 -8 12 38 17 245 30 102 6 187 13 190 16 3 3 64 3 135 0 98 -4 152 -12
218 -31z m-3126 0 c2 -2 0 -115 -6 -250 -6 -135 -11 -329 -11 -431 l0 -185
-59 0 -59 0 -4 148 c-2 81 -2 279 0 441 l5 294 65 -6 c36 -4 67 -8 69 -11z
m131 8 l23 -6 -6 -312 c-3 -171 -8 -366 -11 -433 l-6 -123 -56 0 -55 0 6 113
c4 61 11 227 17 367 16 386 17 400 43 400 12 0 32 -3 45 -6z m212 -434 l0
-440 -82 0 -81 0 6 138 c4 75 10 271 13 434 8 334 -1 305 92 307 l52 1 0 -440z
m134 434 c19 -7 20 -87 9 -572 l-6 -302 -44 0 -43 0 0 440 0 440 34 0 c19 0
41 -3 50 -6z m225 -186 c-1 -106 -5 -303 -8 -436 l-6 -244 -72 -4 -73 -5 0
441 0 440 80 0 80 0 -1 -192z m2673 55 c38 -34 9 -324 -32 -315 -32 8 -141 5
-230 -6 -139 -17 -374 -39 -378 -36 -2 1 1 34 7 73 6 38 11 106 11 150 0 66 3
82 18 89 9 5 85 15 167 22 83 7 200 18 260 25 152 17 156 17 177 -2z m2066
-133 l63 0 -6 -72 c-7 -84 -24 -211 -29 -215 -2 -2 -33 24 -70 59 l-66 62 0
89 c0 88 0 89 23 83 12 -3 50 -6 85 -6z m208 -41 c105 -66 384 -362 362 -384
-2 -2 -41 1 -88 6 -215 24 -303 45 -345 82 l-25 22 10 130 c10 133 17 175 29
175 4 0 29 -14 57 -31z m1028 -38 c32 -31 33 -31 64 -15 26 12 49 14 117 9 47
-4 149 -8 228 -9 88 -1 150 -6 162 -14 50 -29 50 -28 4 -68 -105 -93 -159
-169 -159 -226 0 -34 -34 -42 -109 -28 -29 5 -55 10 -57 10 -2 0 -4 6 -4 14 0
34 -20 23 -48 -26 -32 -57 -84 -111 -146 -152 -38 -25 -43 -26 -206 -26 -122
0 -170 3 -178 13 -5 6 -15 32 -22 57 -7 25 -21 62 -31 82 -34 67 -43 131 -25
190 18 61 104 195 138 215 17 10 52 13 131 10 106 -5 110 -6 141 -36z m-475
19 c53 0 102 -4 110 -9 10 -7 1 -26 -40 -86 l-54 -78 0 -109 0 -108 -45 5
c-96 13 -98 14 -121 63 -15 32 -69 94 -168 191 l-145 144 183 -6 c101 -4 227
-7 280 -7z m1222 -239 c129 -112 140 -128 129 -185 -4 -23 -12 -32 -38 -38
-18 -5 -47 -18 -65 -28 -21 -13 -50 -20 -83 -20 -59 0 -94 21 -188 118 l-59
61 37 57 c38 56 119 144 133 144 5 0 65 -49 134 -109z m-3960 28 c27 -12 49
-25 49 -29 0 -10 -98 -19 -300 -25 -178 -6 -336 -11 -580 -20 -122 -4 -161 -2
-185 9 -28 13 -20 14 100 15 72 1 193 8 270 16 77 9 167 18 200 21 33 2 73 7
89 9 16 3 66 8 110 11 45 4 83 8 85 10 14 13 119 1 162 -17z m-383 -121 c-8
-23 -35 -33 -53 -18 -13 10 -13 15 -3 21 20 13 60 11 56 -3z m152 -1 c0 -30
-51 -86 -95 -102 -77 -30 -143 -7 -193 66 l-24 34 32 3 c23 3 37 -3 54 -21 44
-47 118 -44 152 8 17 27 74 37 74 12z m-332 -61 c15 -8 36 -24 46 -35 20 -22
20 -22 -39 -81 -55 -56 -63 -60 -104 -60 l-45 0 57 58 c32 32 54 61 51 65 -4
4 -21 7 -37 7 -43 0 -101 -60 -95 -99 4 -25 0 -31 -19 -36 -37 -9 -46 3 -40
52 12 108 133 177 225 129z m87 -116 c8 -48 2 -60 -34 -60 -25 0 -27 3 -23 33
4 31 27 67 43 67 4 0 10 -18 14 -40z m656 -140 c35 -11 80 -29 99 -39 l34 -19
-154 -6 c-242 -9 -884 -23 -892 -19 -6 3 24 75 35 85 1 1 164 5 362 8 198 3
381 7 406 8 26 1 75 -7 110 -18z m-1043 -52 c6 -17 10 -33 9 -35 -2 -1 -20 0
-40 4 -33 5 -37 9 -37 34 0 25 4 29 28 29 22 0 30 -7 40 -32z m1302 -93 c18
-35 21 -239 4 -268 -10 -17 -12 -17 -28 7 l-16 26 -218 0 c-119 0 -269 -5
-332 -10 -133 -12 -458 -49 -480 -54 -8 -2 -27 -7 -42 -10 -23 -5 -28 -12 -28
-36 0 -23 -4 -30 -20 -30 -18 0 -20 7 -20 63 0 68 -18 272 -26 298 -4 15 24
17 278 24 156 4 369 11 473 14 105 4 246 7 315 6 l125 0 15 -30z m1725 -11
c174 -37 170 -37 222 -10 40 22 55 25 103 20 30 -4 58 -9 62 -13 4 -3 8 -58 9
-121 l1 -115 -63 1 c-145 1 -245 7 -269 16 -47 18 -144 146 -156 206 -8 38 -7
38 91 16z m-817 -56 c7 -7 12 -17 12 -23 0 -15 -44 -35 -75 -35 -20 0 -25 5
-25 25 0 37 61 60 88 33z m2212 -9 c9 -14 24 -268 17 -276 -7 -6 -309 14 -414
29 l-83 11 0 69 c0 84 16 154 39 164 9 4 91 7 183 8 92 1 170 5 175 10 11 11
75 0 83 -15z m221 -1 c30 -9 72 -40 148 -111 108 -100 130 -130 131 -181 0
-27 -2 -28 -37 -23 -21 3 -109 11 -195 18 -86 7 -161 15 -167 18 -5 4 -13 73
-17 155 l-7 149 51 -6 c28 -3 70 -12 93 -19z m980 -96 c-49 -124 -84 -202 -92
-202 -14 0 -21 84 -9 115 9 24 105 135 117 135 1 0 -6 -22 -16 -48z m-3601 7
c15 -28 8 -33 -47 -33 -39 -1 -48 2 -51 18 -8 39 78 53 98 15z m1820 -111 c0
-26 -36 -31 -142 -19 -124 15 -124 15 -144 66 -29 77 -22 78 140 22 116 -40
146 -54 146 -69z m-4489 25 c6 -16 16 -53 24 -85 l13 -56 -34 -4 c-41 -5 -44
1 -44 98 0 60 3 74 15 74 9 0 20 -12 26 -27z m256 -134 c15 -7 73 -13 128 -14
55 -1 138 -9 185 -18 142 -26 340 -29 894 -14 516 14 570 13 600 -14 6 -6 4
-9 -5 -9 -7 0 -52 -4 -99 -10 -47 -5 -218 -14 -380 -20 -162 -6 -350 -15 -418
-21 -107 -9 -138 -8 -250 10 -70 11 -194 25 -277 31 -82 6 -168 16 -190 22
-22 6 -70 11 -107 11 -61 0 -70 3 -94 28 -31 32 -29 34 13 18z m5896 -28 c7
-7 7 -18 1 -32 -9 -19 -19 -22 -71 -23 l-61 -1 20 39 c19 37 21 38 60 33 22
-3 45 -10 51 -16z m-2245 -48 c-17 -36 -43 -127 -67 -238 -85 -388 -187 -771
-334 -1260 -109 -365 -103 -331 -69 -343 l27 -9 -31 -7 c-21 -5 -48 0 -86 14
-96 36 -94 27 -44 175 40 117 321 1085 377 1295 25 99 44 139 109 235 46 68
80 128 80 140 0 18 -45 -24 -82 -75 -23 -32 -45 -57 -50 -54 -8 5 -3 97 8 151
4 23 6 23 155 31 l36 2 -29 -57z m772 30 c0 -16 3 -38 6 -50 6 -21 3 -23 -30
-23 -20 0 -53 7 -73 15 -34 15 -35 16 -19 34 21 23 74 50 99 51 12 0 17 -8 17
-27z m245 11 c13 -5 33 -140 22 -151 -8 -8 -191 47 -199 60 -4 7 -8 34 -8 61
l0 49 86 -7 c47 -4 91 -9 99 -12z m-755 -41 c120 -26 500 -131 512 -142 7 -6
-49 -261 -61 -273 -12 -13 -524 147 -647 202 l-61 28 8 56 c5 31 20 81 34 112
l24 55 38 -6 c21 -4 90 -18 153 -32z m-4110 12 c0 -2 54 -217 120 -478 66
-260 120 -483 120 -494 0 -19 -8 -20 -162 -26 -89 -4 -163 -6 -164 -4 -1 1 -4
226 -7 499 l-4 497 21 4 c32 6 76 8 76 2z m158 -62 c17 -38 50 -129 73 -203
53 -169 115 -336 139 -376 l19 -30 -53 -53 -54 -53 -10 33 c-47 147 -109 365
-151 524 -27 105 -52 198 -56 208 -6 14 -1 17 27 17 33 0 36 -3 66 -67z
m-1981 -198 c22 -44 -187 160 -216 210 -19 31 1 16 88 -70 62 -60 119 -123
128 -140z m4037 184 c14 -11 33 -34 41 -50 16 -30 33 -149 21 -149 -4 0 -21
10 -37 23 -30 21 -37 22 -237 20 -114 0 -306 -8 -427 -17 -121 -9 -254 -18
-295 -21 -41 -3 -99 -10 -127 -16 -29 -6 -57 -8 -62 -5 -5 3 -14 27 -20 52 -7
26 -21 64 -31 85 -25 48 -34 46 195 53 224 8 747 36 760 41 6 2 51 4 101 4 78
1 95 -2 118 -20z m-3254 -46 c0 -36 -4 -40 -62 -73 -33 -19 -86 -49 -116 -67
-31 -17 -59 -30 -63 -28 -11 8 -89 140 -89 153 0 7 14 12 33 13 17 0 79 9 137
19 159 27 160 27 160 -17z m339 -115 l0 -123 -21 45 c-26 57 -58 149 -58 166
0 12 40 31 68 33 9 1 12 -29 11 -121z m6631 98 c0 -7 11 -23 25 -36 28 -27 31
-46 10 -74 -16 -22 -31 -14 -66 35 -18 26 -19 29 -3 63 16 33 34 40 34 12z
m-1200 -45 c0 -23 -153 -641 -209 -845 -48 -173 -111 -369 -117 -363 -2 2 31
145 75 318 76 299 149 616 188 816 16 84 20 93 41 93 15 0 22 -6 22 -19z
m-6337 -23 c34 -45 88 -154 80 -162 -4 -3 -13 -6 -22 -6 -9 0 -42 -11 -74 -24
l-58 -24 3 21 c2 15 21 31 56 50 28 16 52 32 52 37 0 13 -59 -7 -101 -35 -21
-14 -40 -25 -42 -25 -9 0 -98 162 -93 167 10 11 101 32 138 32 30 1 41 -5 61
-31z m1416 1 c25 -9 31 -16 31 -39 l0 -29 -36 15 c-44 18 -72 13 -114 -22
l-31 -27 3 39 c3 33 8 42 38 56 41 21 65 22 109 7z m5329 -14 c8 -8 18 -264
14 -348 l-5 -88 -36 3 -36 3 -17 75 c-10 41 -29 134 -44 205 -14 72 -28 139
-31 149 -5 18 -1 19 73 12 43 -4 80 -9 82 -11z m-4601 -14 c7 -4 -2 -27 -30
-68 -23 -35 -44 -59 -48 -55 -3 4 -12 30 -19 57 -6 28 -14 58 -17 68 -4 16 1
17 49 11 29 -4 58 -9 65 -13z m5173 -8 c0 -42 -65 -103 -109 -103 l-35 0 64
65 c35 36 68 65 72 65 4 0 8 -12 8 -27z m206 -36 c17 -31 18 -29 -59 -154 -50
-84 -63 -95 -73 -68 -4 9 9 32 35 60 52 56 59 84 34 134 -17 35 -18 42 -6 66
14 26 15 26 35 8 11 -10 26 -30 34 -46z m-7208 -112 c59 -90 154 -238 212
-327 58 -89 131 -202 163 -251 32 -49 55 -92 52 -96 -4 -3 -42 -8 -85 -9 -74
-4 -79 -3 -90 19 -22 43 -121 210 -286 484 -90 149 -166 278 -169 288 -6 13 2
21 36 37 24 11 48 20 52 20 4 0 56 -74 115 -165z m6226 60 c20 -99 46 -276 46
-310 0 -25 -1 -25 -85 -25 -68 0 -85 3 -85 14 0 8 18 88 40 177 22 89 40 175
40 190 0 15 3 35 6 44 10 25 19 4 38 -90z m-5354 -5 c0 -5 -5 -10 -11 -10 -5
0 -7 5 -4 10 3 6 8 10 11 10 2 0 4 -4 4 -10z m6103 -104 c-21 -38 -26 -37 -70
6 -23 23 -43 45 -43 49 0 4 12 9 28 11 30 4 96 -47 85 -66z m-6103 48 c0 -14
-3 -14 -15 -4 -8 7 -15 14 -15 16 0 2 7 4 15 4 8 0 15 -7 15 -16z m-1056 -40
c14 -26 26 -50 26 -54 0 -11 -139 -72 -149 -65 -6 3 -22 28 -36 56 l-25 50 48
20 c26 11 56 24 67 29 35 15 43 11 69 -36z m5651 7 l60 -16 0 -85 c0 -97 13
-89 -117 -75 l-68 7 0 99 0 99 33 -7 c17 -3 59 -13 92 -22z m-4375 -165 l0
-40 -70 69 c-63 63 -70 73 -70 109 l0 40 70 -69 c63 -63 70 -73 70 -109z m24
83 c-16 -18 -18 -18 -36 -2 -18 16 -17 18 14 50 l33 34 3 -31 c2 -20 -3 -39
-14 -51z m5966 -24 c0 -6 -7 -21 -16 -34 l-16 -23 -34 33 c-39 37 -40 45 -18
78 l16 23 34 -33 c19 -18 34 -38 34 -44z m-7119 -132 c51 -82 130 -205 176
-274 46 -70 83 -132 83 -139 0 -7 -18 -10 -52 -8 l-52 3 -104 115 c-92 102
-292 355 -292 370 1 7 122 78 137 79 6 1 53 -65 104 -146z m3728 79 c58 -26
106 -52 108 -57 2 -6 -79 -17 -214 -28 -120 -10 -312 -29 -428 -41 l-210 -23
-50 25 c-121 60 -146 65 -367 70 -194 4 -246 11 -180 26 15 3 133 10 262 16
261 11 869 49 885 55 38 14 99 0 194 -43z m245 -134 c47 -47 76 -134 89 -265
8 -87 8 -130 -1 -185 -13 -73 -54 -179 -77 -198 -7 -6 -179 -35 -381 -65 -203
-30 -412 -61 -464 -69 -142 -24 -134 -26 -159 49 -28 87 -44 239 -36 350 6 86
51 311 66 328 4 5 157 22 340 38 184 16 368 33 409 38 153 17 178 15 214 -21z
m-3453 -86 c25 -11 62 -34 83 -52 36 -32 36 -33 36 -110 l0 -77 -46 -7 c-25
-3 -49 -4 -54 -1 -4 2 -10 21 -13 41 -8 45 -42 97 -80 119 -28 17 -87 89 -87
108 0 16 109 1 161 -21z m5697 -197 c7 -71 18 -171 26 -222 l13 -92 -42 -41
c-22 -22 -48 -40 -56 -40 -19 0 -23 28 -40 313 -14 221 -14 219 51 215 l35 -3
13 -130z m221 -7 l2 -143 -54 -53 c-66 -65 -65 -67 -77 118 -5 74 -12 152 -16
172 l-6 37 73 4 c41 1 74 4 75 5 1 1 2 -62 3 -140z m206 115 c11 -15 6 -26
-33 -75 -25 -32 -52 -63 -61 -70 -9 -7 -13 -9 -9 -4 3 4 0 29 -8 54 -7 26 -14
62 -14 80 l0 32 56 0 c42 0 60 -4 69 -17z m-4865 -90 c181 -82 355 -118 490
-103 85 9 187 43 242 80 88 60 104 36 88 -128 -20 -202 -49 -278 -141 -372
-89 -90 -219 -128 -394 -114 -206 15 -334 83 -395 210 -21 43 -25 67 -28 196
-3 81 -1 176 2 211 l7 65 37 -10 c20 -6 61 -21 92 -35z m4934 -9 c10 -30 12
-52 7 -63 -5 -9 -84 -90 -175 -180 -136 -134 -169 -161 -180 -152 -12 10 -14
9 -9 -7 3 -14 -7 -28 -37 -52 l-41 -32 -44 17 c-25 9 -47 20 -49 24 -3 4 28
35 69 69 72 60 94 74 79 50 -4 -7 -3 -8 4 -4 7 4 12 13 12 20 0 15 41 54 94
89 21 14 50 43 65 65 29 43 172 202 183 202 3 0 13 -21 22 -46z m-6551 -151
c18 -30 47 -61 70 -75 72 -43 99 -69 94 -92 -5 -18 -4 -19 5 -5 10 14 23 6
100 -60 70 -60 85 -77 72 -84 -8 -5 -27 -6 -41 -3 -15 4 -22 3 -19 -3 10 -16
-33 -24 -52 -10 -83 64 -357 321 -373 350 -7 14 -1 56 17 108 7 20 87 -59 127
-126z m557 9 c0 -16 -14 -20 -112 -30 -62 -6 -114 -10 -115 -9 -1 1 5 11 13
22 11 15 31 21 82 26 126 11 132 11 132 -9z m-337 -32 c-5 -18 -12 -21 -59
-18 -94 5 -66 26 48 36 12 2 15 -4 11 -18z m327 -39 c0 -4 -5 -22 -11 -39
l-10 -30 -52 15 c-29 8 -63 21 -76 28 -23 12 -20 13 50 22 40 6 80 11 87 12 6
0 12 -3 12 -8z m4965 -495 c41 -17 44 -29 12 -43 -21 -10 -43 -5 -65 13 -5 3
8 44 14 44 3 0 20 -7 39 -14z m-10 -136 c-44 -44 -82 -80 -85 -80 -4 0 -15 6
-26 14 -17 13 -17 16 -4 30 18 18 171 113 185 115 5 1 -26 -35 -70 -79z m109
24 c6 -28 3 -34 -27 -53 -19 -11 -36 -21 -39 -21 -12 0 7 78 25 98 24 25 32
20 41 -24z m-4565 -135 c72 -66 131 -122 131 -124 0 -2 -10 -1 -22 3 -22 5
-262 242 -246 242 4 0 66 -54 137 -121z m4336 41 c10 -11 31 -24 47 -28 l30
-7 -43 -22 c-47 -24 -64 -19 -97 28 -14 20 -14 23 3 35 26 19 39 17 60 -6z
m-1395 -40 c0 -37 -181 -108 -243 -94 -22 4 -27 11 -25 27 6 40 121 83 226 86
36 1 42 -2 42 -19z m1310 -12 c19 -13 35 -28 37 -35 4 -11 -154 -99 -163 -90
-2 2 12 19 31 37 42 40 43 50 10 50 -48 0 -83 -27 -96 -73 -13 -43 -32 -67
-56 -67 -9 0 -13 16 -13 51 l0 50 103 49 c56 27 105 49 108 49 3 1 21 -9 39
-21z m-315 -178 c21 -23 21 -22 -22 -44 -57 -29 -65 -21 -33 32 23 37 30 39
55 12z"/>
<path d="M8439 5267 c-19 -12 -35 -30 -37 -40 -2 -9 4 -51 13 -92 16 -72 18
-75 46 -75 27 0 29 3 29 40 0 43 16 54 25 18 3 -13 6 -54 7 -93 l3 -70 44 -3
43 -3 -7 80 c-6 65 -4 84 9 103 27 39 20 74 -24 118 -33 33 -47 40 -79 40 -23
0 -51 -9 -72 -23z"/>
<path d="M2381 3650 c-24 -11 -42 -23 -39 -26 6 -5 118 34 118 42 0 10 -38 2
-79 -16z"/>
<path d="M8971 2764 c0 -11 3 -14 6 -6 3 7 2 16 -1 19 -3 4 -6 -2 -5 -13z"/>
<path d="M2961 2764 c0 -11 3 -14 6 -6 3 7 2 16 -1 19 -3 4 -6 -2 -5 -13z"/>
<path d="M2978 2724 c9 -17 62 -62 62 -52 0 2 -17 19 -37 38 -23 23 -32 28
-25 14z"/>
</g>
</svg>
